<svg xmlns="http://www.w3.org/2000/svg" viewBox="-24 -24 328 248" width="328" height="248" font-family="system-ui, -apple-system, Segoe UI, sans-serif"><rect x="-24" y="-24" width="328" height="248" fill="#ffffff" /><path d="M 100 60 L 168 60" fill="none" stroke="#64748b" stroke-width="1.5" stroke-linejoin="round" stroke-linecap="round" /><path d="M 168 60 L 156 64.5 L 156 55.5 Z" fill="#64748b" /><rect x="151.6" y="51" width="32.8" height="18" rx="3" fill="#ffffffd9" /><text x="168" y="60" text-anchor="middle" dominant-baseline="central" font-size="11" fill="#334155">next</text><circle cx="100" cy="60" r="2" fill="#0ea5e9" /><line x1="100" y1="53" x2="100" y2="67" stroke="#0ea5e9" stroke-width="0.75" /><circle cx="168" cy="60" r="2" fill="#0ea5e9" /><line x1="168" y1="53" x2="168" y2="67" stroke="#0ea5e9" stroke-width="0.75" /><path d="M 200 80 L 200 114 Q 200 120 206 120 L 216 120 Q 220 120 220 124 L 220 128" fill="none" stroke="#ea580c" stroke-width="2" stroke-linejoin="round" stroke-linecap="round" /><path d="M 220 128 L 215.5 116 L 224.5 116 Z" fill="#ea580c" /><rect x="203.6" y="111" width="32.8" height="18" rx="3" fill="#ffffffd9" /><text x="220" y="120" text-anchor="middle" dominant-baseline="central" font-size="11" fill="#334155">done</text><circle cx="200" cy="80" r="2" fill="#0ea5e9" /><line x1="193" y1="80" x2="207" y2="80" stroke="#0ea5e9" stroke-width="0.75" /><circle cx="200" cy="120" r="2" fill="#0ea5e9" /><line x1="193" y1="120" x2="207" y2="120" stroke="#0ea5e9" stroke-width="0.75" /><circle cx="220" cy="120" r="2" fill="#0ea5e9" /><line x1="220" y1="113" x2="220" y2="127" stroke="#0ea5e9" stroke-width="0.75" /><circle cx="220" cy="128" r="2" fill="#0ea5e9" /><line x1="213" y1="128" x2="227" y2="128" stroke="#0ea5e9" stroke-width="0.75" /><circle cx="200" cy="110" r="4" fill="none" stroke="#ef4444" stroke-width="1.2" /><line x1="70" y1="80" x2="132" y2="112" stroke="#9333ea" stroke-width="2" stroke-linecap="round" stroke-dasharray="6 4" /><line x1="132" y1="112" x2="240" y2="80" stroke="#9333ea" stroke-width="2" stroke-linecap="round" stroke-dasharray="6 4" /><line x1="132" y1="112" x2="200" y2="140" stroke="#9333ea" stroke-width="2" stroke-linecap="round" stroke-dasharray="6 4" /><circle cx="132" cy="112" r="2" fill="#9333ea" /><circle cx="236.16" cy="81.14" r="4" fill="#9333ea" /><rect x="115.6" y="103" width="32.8" height="18" rx="3" fill="#ffffffd9" /><text x="132" y="112" text-anchor="middle" dominant-baseline="central" font-size="11" fill="#6b21a8">trip</text><rect x="20" y="40" width="80" height="40" rx="5" fill="#dcfce7" stroke="#16a34a" stroke-width="1.5" /><text x="60" y="60" text-anchor="middle" dominant-baseline="central" font-size="11" fill="#1e293b">Start</text><circle cx="60" cy="60" r="2" fill="#ef4444" /><text x="20" y="37" font-size="9" fill="#ef4444">60,60</text><rect x="180" y="40" width="80" height="40" rx="5" fill="#eef2ff" stroke="#3b5bdb" stroke-width="1.5" /><rect x="197.5" y="77.5" width="5" height="5" fill="#3b5bdb" /><text x="200" y="75" text-anchor="middle" font-size="8" fill="#3b5bdb">b0</text><rect x="237.5" y="77.5" width="5" height="5" fill="#3b5bdb" /><text x="240" y="75" text-anchor="middle" font-size="8" fill="#3b5bdb">b1</text><text x="220" y="60" text-anchor="middle" dominant-baseline="central" font-size="11" fill="#1e293b">Process</text><circle cx="220" cy="60" r="2" fill="#ef4444" /><text x="180" y="37" font-size="9" fill="#ef4444">220,60</text><rect x="180" y="140" width="80" height="40" rx="5" fill="#fee2e2" stroke="#dc2626" stroke-width="1.5" /><text x="220" y="160" text-anchor="middle" dominant-baseline="central" font-size="11" fill="#1e293b">End</text><circle cx="220" cy="160" r="2" fill="#ef4444" /><text x="180" y="137" font-size="9" fill="#ef4444">220,160</text><rect x="0" y="0" width="280" height="200" fill="none" stroke="#94a3b8" stroke-dasharray="4 4" stroke-width="1" /><text x="4" y="12" font-size="10" fill="#b45309">⚠ BAD_FOCUS: focus id &#39;Z&#39; is not in nodes[]</text></svg>